<svg width="300" height="167" viewBox="0 0 300 167" fill="none" xmlns="http://www.w3.org/2000/svg">
<path d="M22.6415 15.566H298C299.105 15.566 300 16.4615 300 17.566V143.17C300 145.379 298.209 147.17 296 147.17H22.6415V15.566Z" fill="url(#paint0_linear)"/>
<path d="M22.6415 15.566H298C299.105 15.566 300 16.4615 300 17.566V18.3962H22.6415V15.566Z" fill="#C5CDD5"/>
<rect width="4.24528" height="114.623" transform="matrix(-1 0 0 1 22.6415 24.0566)" fill="#4A5458"/>
<path d="M18.3962 0V166.981H11.3208V7.07547H0V0H18.3962Z" fill="#C4C4C4"/>
<rect x="33.9623" y="147.17" width="131.604" height="9.90566" fill="#889AB4"/>
<path d="M33.9623 157.075H165.566V158.736C165.566 160.945 163.775 162.736 161.566 162.736H37.9623C35.7531 162.736 33.9623 160.945 33.9623 158.736V157.075Z" fill="#F2D99A"/>
<rect x="39.6227" y="147.17" width="5.66038" height="5.66038" fill="#49515B"/>
<rect x="107.547" y="147.17" width="5.66038" height="5.66038" fill="#49515B"/>
<rect x="48.1132" y="147.17" width="2.83019" height="5.66038" fill="#49515B"/>
<rect x="62.2642" y="147.17" width="2.83019" height="5.66038" fill="#49515B"/>
<rect x="96.2264" y="147.17" width="2.83019" height="5.66038" fill="#49515B"/>
<rect x="101.887" y="147.17" width="2.83019" height="5.66038" fill="#49515B"/>
<rect x="124.528" y="147.17" width="2.83019" height="5.66038" fill="#49515B"/>
<rect x="130.189" y="147.17" width="2.83019" height="5.66038" fill="#49515B"/>
<rect x="135.849" y="147.17" width="2.83019" height="5.66038" fill="#49515B"/>
<rect x="148.585" y="147.17" width="2.83019" height="5.66038" fill="#49515B"/>
<rect x="67.9245" y="147.17" width="2.83019" height="5.66038" fill="#49515B"/>
<rect x="82.0755" y="147.17" width="2.83019" height="5.66038" fill="#49515B"/>
<rect x="53.7736" y="147.17" width="5.66038" height="5.66038" fill="#49515B"/>
<rect x="73.5849" y="147.17" width="5.66038" height="5.66038" fill="#49515B"/>
<rect x="87.7358" y="147.17" width="5.66038" height="5.66038" fill="#49515B"/>
<rect x="116.038" y="147.17" width="5.66038" height="5.66038" fill="#49515B"/>
<rect x="154.245" y="147.17" width="5.66038" height="5.66038" fill="#49515B"/>
<rect x="141.509" y="147.17" width="4.24528" height="5.66038" fill="#49515B"/>
<rect width="18.3962" height="2.83019" fill="#E3E3E3"/>
<path d="M14.1509 7.0755H11.3208V166.981H14.1509V7.0755Z" fill="#9DA3A6"/>
<path d="M55.9659 53.8053H55.9101L52.1475 41.5904C52.0082 41.2035 51.7574 41.0377 51.3114 41.0377H48.3571C47.9112 41.0377 47.6324 41.2035 47.521 41.5904L44.0092 53.8053H43.9535L40.6926 41.5904C40.5811 41.2035 40.3024 41.0377 39.8565 41.0377H35.8152C35.3135 41.0377 35.3414 41.4523 35.425 41.7286L40.9992 59.4429C41.1106 59.8021 41.3615 59.9403 41.7795 59.9403H46.1553C46.5734 59.9403 46.8242 59.8021 46.9357 59.4429L49.8064 50.1298H49.8621L52.9837 59.4429C53.0952 59.8021 53.346 59.9403 53.7641 59.9403H58.1119C58.53 59.9403 58.7808 59.8021 58.8923 59.4429L64.2714 41.7286C64.355 41.4523 64.3829 41.0377 63.8812 41.0377H59.8399C59.394 41.0377 59.1153 41.2035 59.0038 41.5904L55.9659 53.8053Z" fill="white"/>
<path d="M66.6409 41.0377C66.3622 41.0377 66.1392 41.2588 66.1392 41.5352V59.36C66.1392 59.6363 66.3622 59.8574 66.6409 59.8574H80.2976C80.5764 59.8574 80.7993 59.6363 80.7993 59.36V56.0437C80.7993 55.7674 80.5764 55.5463 80.2976 55.5463H71.0445V52.534H78.8205C79.0992 52.534 79.3222 52.313 79.3222 52.0366V48.7204C79.3222 48.444 79.0992 48.2229 78.8205 48.2229H71.0445V45.3488H80.2976C80.5764 45.3488 80.7993 45.1278 80.7993 44.8514V41.5352C80.7993 41.2588 80.5764 41.0377 80.2976 41.0377H66.6409Z" fill="white"/>
<path d="M43.2846 90.566C45.4306 90.566 47.3537 89.9857 48.7194 88.9079C50.0572 87.8578 50.8934 86.3654 50.8934 84.4862C50.8934 82.4136 50.0572 81.0871 48.8309 80.1751C47.3537 79.0421 45.2634 78.6275 43.7026 78.1577C42.3927 77.7708 41.4451 77.3839 41.4451 76.5272C41.4451 76.1956 41.6402 75.8916 42.0583 75.6705C42.3648 75.5324 42.8386 75.4218 43.4518 75.4218C45.3192 75.4218 46.8521 76.1403 48.0784 76.8036C48.3292 76.9418 48.5522 76.8589 48.6915 76.6101L50.2802 73.3215C50.3917 73.0728 50.3359 72.8241 50.0851 72.6859C48.8866 72.0779 46.9635 71.2212 43.7305 71.2212C41.4451 71.2212 39.6335 71.7463 38.4072 72.6307C36.9857 73.6255 36.2611 75.0902 36.2611 76.7483C36.2611 78.9592 37.153 80.1751 38.4072 81.1147C39.8286 82.1372 41.7238 82.5518 43.1731 83.0216C44.5109 83.4361 45.5143 83.9059 45.5143 84.8731C45.5143 85.1495 45.4306 85.6193 44.9568 85.9509C44.6224 86.1996 44.065 86.3654 43.2288 86.3654C41.2221 86.3654 39.6335 85.5087 38.3235 84.7073C38.0448 84.5415 37.8219 84.652 37.7104 84.9008L36.1217 88.1894C35.9824 88.4657 36.066 88.6868 36.3168 88.825C37.794 89.6817 40.1352 90.566 43.2846 90.566Z" fill="white"/>
<path d="M65.3262 82.3583C65.3262 83.5743 65.1032 84.431 64.6294 85.0389C63.9605 85.8956 63.0407 86.172 61.8423 86.172C60.7274 86.172 59.8077 85.8956 59.1388 85.0389C58.665 84.431 58.442 83.5743 58.442 82.3583V71.9674C58.442 71.6911 58.2191 71.47 57.9404 71.47H54.0384C53.7597 71.47 53.5367 71.6911 53.5367 71.9674V82.8557C53.5367 84.9284 54.122 86.6694 55.2369 87.9683C56.6583 89.6264 58.9437 90.566 61.8702 90.566C64.8245 90.566 67.1099 89.6264 68.5313 87.9683C69.6462 86.6694 70.2314 84.9284 70.2314 82.8557V71.9674C70.2314 71.6911 70.0085 71.47 69.7298 71.47H65.8278C65.5491 71.47 65.3262 71.6911 65.3262 71.9674V82.3583Z" fill="white"/>
<path d="M84.379 78.2406C84.379 79.3461 83.9888 80.0093 83.3756 80.3686C82.9297 80.6449 82.3444 80.7555 81.7591 80.7555H78.6655V75.7258H81.7591C82.3444 75.7258 82.9297 75.8364 83.4035 76.1403C83.9888 76.4996 84.379 77.1629 84.379 78.2406ZM74.2618 71.47C73.9831 71.47 73.7602 71.6911 73.7602 71.9674V89.7922C73.7602 90.0686 73.9831 90.2897 74.2618 90.2897H78.1638C78.4425 90.2897 78.6655 90.0686 78.6655 89.7922V85.0113H82.5116C83.9888 85.0113 85.466 84.735 86.8038 83.6848C88.3645 82.4965 89.3679 80.562 89.3679 78.2406C89.3679 76.0022 88.4482 74.123 86.9989 72.9346C85.6053 71.774 83.9331 71.47 82.3723 71.47H74.2618Z" fill="white"/>
<path d="M102.697 78.2406C102.697 79.3461 102.306 80.0093 101.693 80.3686C101.247 80.6449 100.662 80.7555 100.077 80.7555H96.983V75.7258H100.077C100.662 75.7258 101.247 75.8364 101.721 76.1403C102.306 76.4996 102.697 77.1629 102.697 78.2406ZM92.5794 71.47C92.3007 71.47 92.0777 71.6911 92.0777 71.9674V89.7922C92.0777 90.0686 92.3007 90.2897 92.5794 90.2897H96.4813C96.76 90.2897 96.983 90.0686 96.983 89.7922V85.0113H100.829C102.306 85.0113 103.784 84.735 105.121 83.6848C106.682 82.4965 107.685 80.562 107.685 78.2406C107.685 76.0022 106.766 74.123 105.316 72.9346C103.923 71.774 102.251 71.47 100.69 71.47H92.5794Z" fill="white"/>
<path d="M130.184 80.9213C130.184 75.0349 125.418 71.2212 119.927 71.2212C114.409 71.2212 109.643 75.0349 109.643 80.9213C109.643 86.7523 114.409 90.566 119.927 90.566C125.418 90.566 130.184 86.8352 130.184 80.9213ZM124.972 80.9213C124.972 83.9059 122.881 86.0338 119.927 86.0338C116.973 86.0338 114.855 83.9059 114.855 80.9213C114.855 77.9366 116.973 75.7811 119.927 75.7811C122.881 75.7811 124.972 77.9366 124.972 80.9213Z" fill="white"/>
<path d="M146.921 82.4136C148.426 81.0871 149.012 79.429 149.012 77.7708C149.012 75.7811 148.231 73.9295 146.81 72.8241C145.556 71.8569 143.8 71.47 141.933 71.47H133.488C133.209 71.47 132.986 71.6911 132.986 71.9674V89.7922C132.986 90.0686 133.209 90.2897 133.488 90.2897H137.39C137.668 90.2897 137.891 90.0686 137.891 89.7922V84.1546H140.873L143.856 89.7922C144.079 90.2068 144.357 90.2897 144.803 90.2897H149.095C149.653 90.2897 149.597 89.8199 149.374 89.433L145.751 83.2426C146.141 83.0216 146.531 82.7452 146.921 82.4136ZM141.598 75.5876C142.183 75.5876 142.797 75.7258 143.242 76.0574C143.744 76.4167 144.023 76.997 144.023 77.8261C144.023 78.6828 143.688 79.3184 143.159 79.65C142.713 79.954 142.044 80.0646 141.18 80.0646H137.891V75.5876H141.598Z" fill="white"/>
<path d="M150.872 71.47C150.593 71.47 150.37 71.6911 150.37 71.9674V75.2836C150.37 75.56 150.593 75.7811 150.872 75.7811H156.223V89.7922C156.223 90.0686 156.446 90.2897 156.725 90.2897H160.627C160.905 90.2897 161.128 90.0686 161.128 89.7922V75.7811H166.479C166.758 75.7811 166.981 75.56 166.981 75.2836V71.9674C166.981 71.6911 166.758 71.47 166.479 71.47H150.872Z" fill="white"/>
<path d="M41.835 118.46V125.518H36.7924V104.717H45.1393C46.7387 104.717 48.1514 105.012 49.3774 105.603C50.6129 106.184 51.5658 107.017 52.2363 108.103C52.9163 109.179 53.2563 110.403 53.2563 111.774C53.2563 113.803 52.5236 115.427 51.0582 116.646C49.6024 117.856 47.6007 118.46 45.0531 118.46H41.835ZM41.835 114.589H45.1393C46.1162 114.589 46.8585 114.346 47.3661 113.86C47.8833 113.374 48.1419 112.689 48.1419 111.803C48.1419 110.832 47.8785 110.055 47.3517 109.474C46.8249 108.893 46.1066 108.598 45.1968 108.589H41.835V114.589Z" fill="black"/>
<path d="M63.6792 114.303H62.6772C61.1544 114.303 60.1775 114.779 59.7465 115.732V125.518H54.905V110.06H59.4448L59.6028 112.046C60.4169 110.531 61.5518 109.774 63.0076 109.774C63.5248 109.774 63.975 109.831 64.3581 109.946L63.6792 114.303Z" fill="black"/>
<path d="M64.0243 117.646C64.0243 116.103 64.326 114.732 64.9293 113.532C65.5327 112.322 66.3995 111.393 67.5297 110.746C68.6598 110.098 69.9863 109.774 71.5091 109.774C73.8365 109.774 75.6706 110.493 77.0114 111.932C78.3523 113.36 79.0227 115.308 79.0227 117.775V117.946C79.0227 120.356 78.3475 122.27 76.9971 123.689C75.6562 125.099 73.8365 125.804 71.5379 125.804C69.3254 125.804 67.5488 125.146 66.208 123.832C64.8671 122.508 64.144 120.718 64.0386 118.46L64.0243 117.646ZM68.8657 117.946C68.8657 119.375 69.0908 120.422 69.5409 121.089C69.9911 121.756 70.6567 122.089 71.5379 122.089C73.2618 122.089 74.143 120.77 74.1813 118.132V117.646C74.1813 114.875 73.2906 113.489 71.5091 113.489C69.8905 113.489 69.0142 114.684 68.8801 117.075L68.8657 117.946Z" fill="black"/>
<path d="M79.7233 117.675C79.7233 116.113 79.9819 114.732 80.4991 113.532C81.0163 112.332 81.7585 111.408 82.7259 110.76C83.6932 110.103 84.8186 109.774 86.1019 109.774C87.7206 109.774 88.9848 110.317 89.8947 111.403L90.0671 110.06H94.4632V124.932C94.4632 126.294 94.1423 127.475 93.5006 128.475C92.8685 129.485 91.949 130.256 90.7423 130.789C89.5355 131.332 88.1372 131.604 86.5473 131.604C85.4076 131.604 84.3014 131.389 83.2287 130.961C82.1656 130.532 81.3515 129.975 80.7864 129.289L82.8121 126.461C83.7123 127.518 84.9 128.046 86.3749 128.046C88.5203 128.046 89.593 126.951 89.593 124.761V124.275C88.6639 125.294 87.4907 125.804 86.0732 125.804C84.1769 125.804 82.6445 125.084 81.476 123.646C80.3075 122.199 79.7233 120.265 79.7233 117.846V117.675ZM84.5791 117.975C84.5791 119.241 84.8186 120.246 85.2974 120.989C85.7763 121.722 86.4467 122.089 87.3087 122.089C88.3527 122.089 89.1141 121.741 89.593 121.046V114.546C89.1237 113.841 88.3718 113.489 87.3375 113.489C86.4755 113.489 85.8003 113.874 85.3118 114.646C84.8233 115.408 84.5791 116.517 84.5791 117.975Z" fill="black"/>
<path d="M104.76 118.46V125.518H99.7174V104.717H108.064C109.664 104.717 111.076 105.012 112.302 105.603C113.538 106.184 114.491 107.017 115.161 108.103C115.841 109.179 116.181 110.403 116.181 111.774C116.181 113.803 115.449 115.427 113.983 116.646C112.527 117.856 110.526 118.46 107.978 118.46H104.76ZM104.76 114.589H108.064C109.041 114.589 109.783 114.346 110.291 113.86C110.808 113.374 111.067 112.689 111.067 111.803C111.067 110.832 110.803 110.055 110.277 109.474C109.75 108.893 109.032 108.598 108.122 108.589H104.76V114.589Z" fill="black"/>
<path d="M116.982 117.646C116.982 116.103 117.284 114.732 117.887 113.532C118.491 112.322 119.358 111.393 120.488 110.746C121.618 110.098 122.944 109.774 124.467 109.774C126.795 109.774 128.629 110.493 129.97 111.932C131.31 113.36 131.981 115.308 131.981 117.775V117.946C131.981 120.356 131.306 122.27 129.955 123.689C128.614 125.099 126.795 125.804 124.496 125.804C122.284 125.804 120.507 125.146 119.166 123.832C117.825 122.508 117.102 120.718 116.997 118.46L116.982 117.646ZM121.824 117.946C121.824 119.375 122.049 120.422 122.499 121.089C122.949 121.756 123.615 122.089 124.496 122.089C126.22 122.089 127.101 120.77 127.139 118.132V117.646C127.139 114.875 126.249 113.489 124.467 113.489C122.849 113.489 121.972 114.684 121.838 117.075L121.824 117.946Z" fill="black"/>
<path d="M149.677 117.76L152.076 104.717H157.075L152.636 125.518H147.407L144.605 113.66L141.862 125.518H136.647L132.193 104.717H137.207L139.606 117.76L142.479 104.717H146.76L149.677 117.76Z" fill="black"/>
<circle cx="233.491" cy="83.4906" r="55.1887" fill="black"/>
<ellipse cx="233.491" cy="48.3796" rx="17.2475" ry="17.2475" fill="url(#paint1_linear)"/>
<ellipse cx="233.491" cy="118.601" rx="17.2475" ry="17.2475" transform="rotate(-180 233.491 118.601)" fill="url(#paint2_linear)"/>
<ellipse cx="198.38" cy="83.4908" rx="17.2475" ry="17.2475" transform="rotate(-90 198.38 83.4908)" fill="url(#paint3_linear)"/>
<ellipse cx="268.602" cy="83.4905" rx="17.2475" ry="17.2475" transform="rotate(90 268.602 83.4905)" fill="url(#paint4_linear)"/>
<circle r="17.2475" transform="matrix(0.707107 -0.707106 0.707107 0.707106 208.663 58.6634)" fill="url(#paint5_linear)"/>
<circle r="17.2475" transform="matrix(-0.707107 0.707106 -0.707107 -0.707106 258.318 108.318)" fill="url(#paint6_linear)"/>
<circle r="17.2475" transform="matrix(-0.707107 -0.707106 0.707107 -0.707106 208.663 108.318)" fill="url(#paint7_linear)"/>
<circle r="17.2475" transform="matrix(0.707107 0.707106 -0.707107 0.707106 258.318 58.6631)" fill="url(#paint8_linear)"/>
<ellipse cx="233.491" cy="48.3796" rx="17.2475" ry="17.2475" fill="url(#paint9_linear)"/>
<ellipse cx="233.491" cy="118.601" rx="17.2475" ry="17.2475" transform="rotate(-180 233.491 118.601)" fill="url(#paint10_linear)"/>
<ellipse cx="198.38" cy="83.491" rx="17.2475" ry="17.2475" transform="rotate(-90 198.38 83.491)" fill="url(#paint11_linear)"/>
<ellipse cx="268.602" cy="83.4908" rx="17.2475" ry="17.2475" transform="rotate(90 268.602 83.4908)" fill="url(#paint12_linear)"/>
<circle r="17.2475" transform="matrix(0.707107 -0.707106 0.707107 0.707106 208.663 58.6635)" fill="url(#paint13_linear)"/>
<circle r="17.2475" transform="matrix(-0.707107 0.707106 -0.707107 -0.707106 258.318 108.318)" fill="url(#paint14_linear)"/>
<circle r="17.2475" transform="matrix(-0.707107 -0.707106 0.707107 -0.707106 208.663 108.318)" fill="url(#paint15_linear)"/>
<circle r="17.2475" transform="matrix(0.707107 0.707106 -0.707107 0.707106 258.318 58.6633)" fill="url(#paint16_linear)"/>
<ellipse cx="233.491" cy="48.3796" rx="17.2475" ry="17.2475" fill="url(#paint17_linear)"/>
<ellipse cx="233.491" cy="118.601" rx="17.2475" ry="17.2475" transform="rotate(-180 233.491 118.601)" fill="url(#paint18_linear)"/>
<ellipse cx="198.38" cy="83.491" rx="17.2475" ry="17.2475" transform="rotate(-90 198.38 83.491)" fill="url(#paint19_linear)"/>
<ellipse cx="268.602" cy="83.4908" rx="17.2475" ry="17.2475" transform="rotate(90 268.602 83.4908)" fill="url(#paint20_linear)"/>
<circle r="17.2475" transform="matrix(0.707107 -0.707106 0.707107 0.707106 208.663 58.6635)" fill="url(#paint21_linear)"/>
<circle r="17.2475" transform="matrix(-0.707107 0.707106 -0.707107 -0.707106 258.318 108.318)" fill="url(#paint22_linear)"/>
<circle r="17.2475" transform="matrix(-0.707107 -0.707106 0.707107 -0.707106 208.663 108.318)" fill="url(#paint23_linear)"/>
<circle r="17.2475" transform="matrix(0.707107 0.707106 -0.707107 0.707106 258.318 58.6633)" fill="url(#paint24_linear)"/>
<circle cx="232.783" cy="84.1981" r="38.9151" fill="white"/>
<rect x="39.6227" y="147.17" width="5.66038" height="1.41509" fill="#2B2F33"/>
<rect x="107.547" y="147.17" width="5.66038" height="1.41509" fill="#2B2F33"/>
<rect x="48.1132" y="147.17" width="2.83019" height="1.41509" fill="#2B2F33"/>
<rect x="62.2642" y="147.17" width="2.83019" height="1.41509" fill="#2B2F33"/>
<rect x="96.2264" y="147.17" width="2.83019" height="1.41509" fill="#2B2F33"/>
<rect x="101.887" y="147.17" width="2.83019" height="1.41509" fill="#2B2F33"/>
<rect x="124.528" y="147.17" width="2.83019" height="1.41509" fill="#2B2F33"/>
<rect x="130.189" y="147.17" width="2.83019" height="1.41509" fill="#2B2F33"/>
<rect x="135.849" y="147.17" width="2.83019" height="1.41509" fill="#2B2F33"/>
<rect x="148.585" y="147.17" width="2.83019" height="1.41509" fill="#2B2F33"/>
<rect x="67.9245" y="147.17" width="2.83019" height="1.41509" fill="#2B2F33"/>
<rect x="82.0755" y="147.17" width="2.83019" height="1.41509" fill="#2B2F33"/>
<rect x="53.7736" y="147.17" width="5.66038" height="1.41509" fill="#2B2F33"/>
<rect x="73.5849" y="147.17" width="5.66038" height="1.41509" fill="#2B2F33"/>
<rect x="87.7358" y="147.17" width="5.66038" height="1.41509" fill="#2B2F33"/>
<rect x="116.038" y="147.17" width="5.66038" height="1.41509" fill="#2B2F33"/>
<rect x="154.245" y="147.17" width="5.66038" height="1.41509" fill="#2B2F33"/>
<rect x="141.509" y="147.17" width="4.24528" height="1.41509" fill="#2B2F33"/>
<path d="M89.1509 18.3962H166.981V56.8491C166.981 59.0582 165.19 60.8491 162.981 60.8491H93.1509C90.9418 60.8491 89.1509 59.0582 89.1509 56.8491V18.3962Z" fill="#98E734"/>
<path d="M103.574 47.4839H99.4054V50.7433H104.279V52.213H97.6415V41.6198H104.23V43.104H99.4054V46.0287H103.574V47.4839Z" fill="black"/>
<path d="M107.674 42.4273V44.3408H109.005V45.6504H107.674V50.0449C107.674 50.3456 107.73 50.5638 107.841 50.6996C107.957 50.8306 108.162 50.8961 108.455 50.8961C108.65 50.8961 108.847 50.8718 109.047 50.8233V52.1911C108.661 52.3027 108.29 52.3585 107.932 52.3585C106.63 52.3585 105.98 51.6091 105.98 50.1103V45.6504H104.739V44.3408H105.98V42.4273H107.674Z" fill="black"/>
<path d="M111.975 45.1993C112.528 44.53 113.228 44.1953 114.074 44.1953C115.682 44.1953 116.498 45.1533 116.521 47.0692V52.213H114.827V47.1346C114.827 46.5914 114.713 46.2082 114.485 45.9851C114.262 45.7571 113.932 45.6431 113.495 45.6431C112.817 45.6431 112.31 45.9584 111.975 46.589V52.213H110.281V41.0377H111.975V45.1993Z" fill="black"/>
<path d="M121.562 52.3585C120.488 52.3585 119.616 52.0068 118.947 51.3035C118.282 50.5954 117.95 49.6544 117.95 48.4806V48.2623C117.95 47.4766 118.094 46.7757 118.382 46.1597C118.675 45.5389 119.084 45.0562 119.609 44.7119C120.135 44.3675 120.72 44.1953 121.366 44.1953C122.393 44.1953 123.186 44.5373 123.744 45.2212C124.306 45.9051 124.587 46.8727 124.587 48.1241V48.8371H119.658C119.709 49.4871 119.916 50.0012 120.279 50.3795C120.646 50.7579 121.106 50.947 121.659 50.947C122.435 50.947 123.067 50.6196 123.555 49.9648L124.469 50.8743C124.167 51.3447 123.762 51.711 123.256 51.9729C122.754 52.2299 122.189 52.3585 121.562 52.3585ZM121.359 45.614C120.895 45.614 120.518 45.7838 120.23 46.1233C119.946 46.4629 119.765 46.9358 119.686 47.5421H122.914V47.4111C122.877 46.8194 122.726 46.3731 122.461 46.0724C122.196 45.7668 121.829 45.614 121.359 45.614Z" fill="black"/>
<path d="M129.858 45.956C129.635 45.9172 129.405 45.8978 129.168 45.8978C128.391 45.8978 127.869 46.2082 127.599 46.8291V52.213H125.905V44.3408H127.522L127.564 45.2212C127.973 44.5373 128.54 44.1953 129.265 44.1953C129.507 44.1953 129.707 44.2293 129.865 44.2972L129.858 45.956Z" fill="black"/>
<path d="M134.111 52.3585C133.037 52.3585 132.165 52.0068 131.496 51.3035C130.832 50.5954 130.499 49.6544 130.499 48.4806V48.2623C130.499 47.4766 130.643 46.7757 130.932 46.1597C131.224 45.5389 131.633 45.0562 132.159 44.7119C132.684 44.3675 133.269 44.1953 133.915 44.1953C134.943 44.1953 135.735 44.5373 136.293 45.2212C136.855 45.9051 137.136 46.8727 137.136 48.1241V48.8371H132.207C132.258 49.4871 132.465 50.0012 132.828 50.3795C133.195 50.7579 133.655 50.947 134.208 50.947C134.984 50.947 135.617 50.6196 136.105 49.9648L137.018 50.8743C136.716 51.3447 136.311 51.711 135.805 51.9729C135.303 52.2299 134.738 52.3585 134.111 52.3585ZM133.908 45.614C133.444 45.614 133.067 45.7838 132.779 46.1233C132.495 46.4629 132.314 46.9358 132.235 47.5421H135.463V47.4111C135.426 46.8194 135.275 46.3731 135.01 46.0724C134.745 45.7668 134.378 45.614 133.908 45.614Z" fill="black"/>
<path d="M143.027 51.4418C142.53 52.0529 141.824 52.3585 140.908 52.3585C140.09 52.3585 139.47 52.1087 139.047 51.6091C138.628 51.1095 138.419 50.3868 138.419 49.441V44.3408H140.113V49.4192C140.113 50.4183 140.511 50.9179 141.305 50.9179C142.128 50.9179 142.684 50.6099 142.972 49.9939V44.3408H144.666V52.213H143.069L143.027 51.4418Z" fill="black"/>
<path d="M147.984 44.3408L148.033 45.163C148.563 44.5179 149.288 44.1953 150.208 44.1953C151.217 44.1953 151.907 44.5979 152.279 45.403C152.827 44.5979 153.599 44.1953 154.594 44.1953C155.425 44.1953 156.044 44.4354 156.448 44.9156C156.857 45.3958 157.066 46.1039 157.075 47.04V52.213H155.381V47.091C155.381 46.5914 155.277 46.2252 155.068 45.9924C154.858 45.7596 154.512 45.6431 154.029 45.6431C153.643 45.6431 153.327 45.7523 153.081 45.9705C152.839 46.184 152.669 46.4653 152.572 46.8145L152.579 52.213H150.885V47.0328C150.861 46.1064 150.408 45.6431 149.525 45.6431C148.847 45.6431 148.365 45.9317 148.082 46.5089V52.213H146.388V44.3408H147.984Z" fill="black"/>
<rect x="18.3962" y="135.849" width="4.24528" height="2.83019" fill="#2B2F33"/>
<defs>
<linearGradient id="paint0_linear" x1="161.321" y1="15.566" x2="161.321" y2="147.17" gradientUnits="userSpaceOnUse">
<stop stop-color="#A2ABB4"/>
<stop offset="0.61326" stop-color="#A2ABB4"/>
<stop offset="0.812155" stop-color="#E8ECF0"/>
<stop offset="1" stop-color="#A4B1BE"/>
</linearGradient>
<linearGradient id="paint1_linear" x1="221.171" y1="60.6992" x2="242.114" y2="56.3873" gradientUnits="userSpaceOnUse">
<stop stop-color="#363C42"/>
<stop offset="1" stop-color="#202020" stop-opacity="0"/>
</linearGradient>
<linearGradient id="paint2_linear" x1="221.171" y1="130.921" x2="242.114" y2="126.609" gradientUnits="userSpaceOnUse">
<stop stop-color="#363C42"/>
<stop offset="1" stop-color="#202020" stop-opacity="0"/>
</linearGradient>
<linearGradient id="paint3_linear" x1="186.06" y1="95.8104" x2="207.003" y2="91.4986" gradientUnits="userSpaceOnUse">
<stop stop-color="#363C42"/>
<stop offset="1" stop-color="#202020" stop-opacity="0"/>
</linearGradient>
<linearGradient id="paint4_linear" x1="256.282" y1="95.8102" x2="277.225" y2="91.4983" gradientUnits="userSpaceOnUse">
<stop stop-color="#363C42"/>
<stop offset="1" stop-color="#202020" stop-opacity="0"/>
</linearGradient>
<linearGradient id="paint5_linear" x1="4.92785" y1="29.5671" x2="25.8712" y2="25.2553" gradientUnits="userSpaceOnUse">
<stop stop-color="#363C42"/>
<stop offset="1" stop-color="#202020" stop-opacity="0"/>
</linearGradient>
<linearGradient id="paint6_linear" x1="4.92785" y1="29.5671" x2="25.8712" y2="25.2553" gradientUnits="userSpaceOnUse">
<stop stop-color="#363C42"/>
<stop offset="1" stop-color="#202020" stop-opacity="0"/>
</linearGradient>
<linearGradient id="paint7_linear" x1="4.92785" y1="29.5671" x2="25.8712" y2="25.2553" gradientUnits="userSpaceOnUse">
<stop stop-color="#363C42"/>
<stop offset="1" stop-color="#202020" stop-opacity="0"/>
</linearGradient>
<linearGradient id="paint8_linear" x1="4.92785" y1="29.5671" x2="25.8712" y2="25.2553" gradientUnits="userSpaceOnUse">
<stop stop-color="#363C42"/>
<stop offset="1" stop-color="#202020" stop-opacity="0"/>
</linearGradient>
<linearGradient id="paint9_linear" x1="221.171" y1="60.6992" x2="242.114" y2="56.3873" gradientUnits="userSpaceOnUse">
<stop stop-color="#4B545E"/>
<stop offset="1" stop-color="#202020" stop-opacity="0"/>
</linearGradient>
<linearGradient id="paint10_linear" x1="221.171" y1="130.921" x2="242.114" y2="126.609" gradientUnits="userSpaceOnUse">
<stop stop-color="#4B545E"/>
<stop offset="1" stop-color="#202020" stop-opacity="0"/>
</linearGradient>
<linearGradient id="paint11_linear" x1="186.06" y1="95.8106" x2="207.003" y2="91.4988" gradientUnits="userSpaceOnUse">
<stop stop-color="#4B545E"/>
<stop offset="1" stop-color="#202020" stop-opacity="0"/>
</linearGradient>
<linearGradient id="paint12_linear" x1="256.282" y1="95.8105" x2="277.225" y2="91.4986" gradientUnits="userSpaceOnUse">
<stop stop-color="#4B545E"/>
<stop offset="1" stop-color="#202020" stop-opacity="0"/>
</linearGradient>
<linearGradient id="paint13_linear" x1="4.92785" y1="29.5671" x2="25.8712" y2="25.2553" gradientUnits="userSpaceOnUse">
<stop stop-color="#4B545E"/>
<stop offset="1" stop-color="#202020" stop-opacity="0"/>
</linearGradient>
<linearGradient id="paint14_linear" x1="4.92785" y1="29.5671" x2="25.8712" y2="25.2553" gradientUnits="userSpaceOnUse">
<stop stop-color="#4B545E"/>
<stop offset="1" stop-color="#202020" stop-opacity="0"/>
</linearGradient>
<linearGradient id="paint15_linear" x1="4.92785" y1="29.5671" x2="25.8712" y2="25.2553" gradientUnits="userSpaceOnUse">
<stop stop-color="#4B545E"/>
<stop offset="1" stop-color="#202020" stop-opacity="0"/>
</linearGradient>
<linearGradient id="paint16_linear" x1="4.92785" y1="29.5671" x2="25.8712" y2="25.2553" gradientUnits="userSpaceOnUse">
<stop stop-color="#4B545E"/>
<stop offset="1" stop-color="#202020" stop-opacity="0"/>
</linearGradient>
<linearGradient id="paint17_linear" x1="221.171" y1="60.6992" x2="242.114" y2="56.3873" gradientUnits="userSpaceOnUse">
<stop stop-color="#4B545E"/>
<stop offset="1" stop-color="#202020" stop-opacity="0"/>
</linearGradient>
<linearGradient id="paint18_linear" x1="221.171" y1="130.921" x2="242.114" y2="126.609" gradientUnits="userSpaceOnUse">
<stop stop-color="#4B545E"/>
<stop offset="1" stop-color="#202020" stop-opacity="0"/>
</linearGradient>
<linearGradient id="paint19_linear" x1="186.06" y1="95.8106" x2="207.003" y2="91.4988" gradientUnits="userSpaceOnUse">
<stop stop-color="#4B545E"/>
<stop offset="1" stop-color="#202020" stop-opacity="0"/>
</linearGradient>
<linearGradient id="paint20_linear" x1="256.282" y1="95.8105" x2="277.225" y2="91.4986" gradientUnits="userSpaceOnUse">
<stop stop-color="#4B545E"/>
<stop offset="1" stop-color="#202020" stop-opacity="0"/>
</linearGradient>
<linearGradient id="paint21_linear" x1="4.92785" y1="29.5671" x2="25.8712" y2="25.2553" gradientUnits="userSpaceOnUse">
<stop stop-color="#4B545E"/>
<stop offset="1" stop-color="#202020" stop-opacity="0"/>
</linearGradient>
<linearGradient id="paint22_linear" x1="4.92785" y1="29.5671" x2="25.8712" y2="25.2553" gradientUnits="userSpaceOnUse">
<stop stop-color="#4B545E"/>
<stop offset="1" stop-color="#202020" stop-opacity="0"/>
</linearGradient>
<linearGradient id="paint23_linear" x1="4.92785" y1="29.5671" x2="25.8712" y2="25.2553" gradientUnits="userSpaceOnUse">
<stop stop-color="#4B545E"/>
<stop offset="1" stop-color="#202020" stop-opacity="0"/>
</linearGradient>
<linearGradient id="paint24_linear" x1="4.92785" y1="29.5671" x2="25.8712" y2="25.2553" gradientUnits="userSpaceOnUse">
<stop stop-color="#4B545E"/>
<stop offset="1" stop-color="#202020" stop-opacity="0"/>
</linearGradient>
</defs>
</svg>
